<?xml version="1.0" standalone="no"?><!DOCTYPE svg PUBLIC "-//W3C//DTD SVG 1.1//EN" "http://www.w3.org/Graphics/SVG/1.1/DTD/svg11.dtd"><svg t="1729914049070" class="icon" viewBox="0 0 1024 1024" version="1.1" xmlns="http://www.w3.org/2000/svg" p-id="13253" xmlns:xlink="http://www.w3.org/1999/xlink" width="200" height="200"><path d="M774.99192 45.44H132.43192A78.4 78.4 0 0 0 54.19192 123.68V832a78.4 78.4 0 0 0 78.24 78.24h423.2c-4.8-210.56 67.2-619.2 219.36-865.12z" fill="#0498C9" p-id="13254"></path><path d="M924.91192 22.24c-44-39.2-97.28-23.52-149.92 23.2C622.83192 291.36 550.19192 700 555.63192 910.56A417.92 417.92 0 0 0 577.07192 1024l6.56-3.68A505.28 505.28 0 0 1 566.19192 851.2a1289.76 1289.76 0 0 1 70.88-354.4C710.19192 302.72 812.43192 146.88 905.87192 72.48c-85.12 76.96-200.32 325.6-234.72 417.6a1676 1676 0 0 0-82.4 292.64c28.48-86.88 120.32-124.32 120.32-124.32s45.12-55.52 97.76-135.04a936.16 936.16 0 0 0-100.64 26.88c-25.6 10.72-32 14.4-32 14.4a876.32 876.32 0 0 1 154.24-73.44c97.28-154.08 203.84-373.12 96.48-468.96z" fill="#004963" p-id="13255"></path></svg>